<?xml version="1.0" encoding="iso-8859-1"?>
<!-- Generator: Adobe Illustrator 19.1.0, SVG Export Plug-In . SVG Version: 6.00 Build 0)  -->
<svg version="1.1" id="Capa_1" xmlns="http://www.w3.org/2000/svg" xmlns:xlink="http://www.w3.org/1999/xlink" x="0px" y="0px"
	 viewBox="0 0 513.32 513.32" style="enable-background:new 0 0 513.32 513.32;" xml:space="preserve">
<g>
	<g>
		<g>
			<polygon points="363.602,256.66 256.66,256.66 256.66,342.213 149.718,342.213 149.718,427.767 42.777,427.767 42.777,513.32 
				85.553,513.32 85.553,470.543 192.495,470.543 192.495,384.99 299.437,384.99 299.437,299.437 406.378,299.437 406.378,213.883 
				513.32,213.883 513.32,171.107 363.602,171.107 			"/>
			<polygon points="419.211,0 55.61,299.437 0,299.437 0,342.213 42.777,342.213 42.777,406.378 85.553,406.378 85.553,331.519 
				406.378,66.304 406.378,149.718 449.155,149.718 449.155,42.777 513.32,42.777 513.32,0 			"/>
		</g>
	</g>
</g>
<g>
</g>
<g>
</g>
<g>
</g>
<g>
</g>
<g>
</g>
<g>
</g>
<g>
</g>
<g>
</g>
<g>
</g>
<g>
</g>
<g>
</g>
<g>
</g>
<g>
</g>
<g>
</g>
<g>
</g>
</svg>
